<svg xmlns="http://www.w3.org/2000/svg" viewBox="0 0 248 64"><path fill="#609F5E" d="M34.6 17.8v15.4L0 42.3v-9L28.8 26v-1.3L6.9 18.6V9.7l27.7 8.1z"/><path fill="#E8524D" d="M53.4 32.4L49.2 52h-9.7l11-52h18.6c2.2 0 4.1.3 5.9 1 1.8.7 3.3 1.7 4.5 2.9 1.2 1.2 2.2 2.7 2.9 4.4.7 1.7 1 3.5 1 5.5 0 2.8-.5 5.3-1.4 7.6-.9 2.3-2.3 4.2-4 5.9-1.7 1.6-3.8 2.9-6.2 3.8-2.4.9-5.1 1.3-8.1 1.3H53.4zm2-9.4h9.1c2.5 0 4.6-.7 6.3-2.2s2.5-3.4 2.5-5.8c0-1.8-.6-3.2-1.7-4.2-1.2-1-2.7-1.4-4.6-1.4h-8.7L55.4 23zM83.5 51.1L94.3 0h9.8L95 42.6h22.6V52H83.5v-.9zM133.8 52H124l11.1-52h9.8l-4.5 21.3h1.8L158.9 0h11.4v.9l-19.7 24.6v1.3L163 51.5v.5h-10.8l-10.8-21.3h-3.1L133.8 52zM193.3 47.1h1.3l10-47.1h9.4l-11.1 52h-18.3l3.5-47.1h-1.3l-10 47.1h-9.3l11-52h18.3l-3.5 47.1z"/><path fill="#F2EFF0" d="M211.9 55.5h36.4V64h-36.4v-8.5z"/></svg>